<svg width="53" height="53" viewBox="0 0 53 53" fill="none" xmlns="http://www.w3.org/2000/svg">
    <path d="M51.9942 16.5318L27.7716 0.383335C26.9449 -0.125446 26.0625 -0.130105 25.2282 0.383335L1.00555 16.5318C0.384456 16.9458 0 17.6853 0 18.4246V34.573C0 35.3124 0.384456 36.0518 1.00565 36.4659L25.2283 52.6167C26.055 53.1254 26.9374 53.1301 27.7717 52.6167L51.9944 36.4659C52.6154 36.0519 53 35.3124 53 34.573V18.4246C52.9999 17.6853 52.6154 16.9458 51.9942 16.5318ZM28.7773 6.53498L46.6115 18.4246L38.6557 23.7483L28.7773 17.1528V6.53498ZM24.2226 6.53498V17.1528L14.3442 23.7483L6.38835 18.4246L24.2226 6.53498ZM4.55468 22.6836L10.2628 26.4989L4.55468 30.3141V22.6836ZM24.2226 46.4627L6.38835 34.5731L14.3442 29.2494L24.2226 35.8449V46.4627ZM26.5 31.8817L18.4552 26.4989L26.5 21.116L34.5447 26.4989L26.5 31.8817ZM28.7773 46.4627V35.8449L38.6557 29.2494L46.6115 34.5731L28.7773 46.4627ZM48.4452 30.3141L42.7371 26.4989L48.4452 22.6836V30.3141Z" fill="#6D7483"/>
</svg>
