<svg width="54" height="53" viewBox="0 0 54 53" fill="none" xmlns="http://www.w3.org/2000/svg">
    <path d="M18.0617 42.6755C18.0617 42.8947 17.8113 43.0701 17.4956 43.0701C17.1363 43.1029 16.8859 42.9276 16.8859 42.6755C16.8859 42.4563 17.1363 42.281 17.452 42.281C17.7786 42.2481 18.0617 42.4235 18.0617 42.6755ZM14.6758 42.1824C14.5996 42.4015 14.8173 42.6536 15.144 42.7194C15.427 42.8289 15.7536 42.7194 15.819 42.5002C15.8843 42.281 15.6774 42.0289 15.3508 41.9303C15.0677 41.8536 14.752 41.9632 14.6758 42.1824ZM19.4879 41.996C19.1722 42.0728 18.9544 42.281 18.9871 42.5331C19.0198 42.7522 19.3028 42.8947 19.6294 42.818C19.9452 42.7413 20.1629 42.5331 20.1302 42.3139C20.0976 42.1056 19.8036 41.9632 19.4879 41.996ZM26.6516 0C11.5512 0 0 11.5401 0 26.7407C0 38.8946 7.59919 49.2949 18.4536 52.9553C19.8472 53.2074 20.3371 52.3416 20.3371 51.6293C20.3371 50.9498 20.3044 47.2017 20.3044 44.9003C20.3044 44.9003 12.6835 46.5442 11.0831 41.6344C11.0831 41.6344 9.84194 38.4452 8.05645 37.6233C8.05645 37.6233 5.56331 35.9027 8.23065 35.9356C8.23065 35.9356 10.9415 36.1547 12.4331 38.7631C14.8173 42.9933 18.8129 41.7769 20.3698 41.0535C20.6202 39.3001 21.3278 38.0836 22.1117 37.3603C16.0258 36.6808 9.88548 35.7931 9.88548 25.2502C9.88548 22.2364 10.7129 20.724 12.4548 18.7952C12.1718 18.0828 11.2464 15.1458 12.7379 11.3538C15.0133 10.6415 20.25 14.3128 20.25 14.3128C22.4274 13.6991 24.7681 13.3813 27.0871 13.3813C29.406 13.3813 31.7468 13.6991 33.9242 14.3128C33.9242 14.3128 39.1609 10.6305 41.4363 11.3538C42.9278 15.1567 42.0024 18.0828 41.7194 18.7952C43.4613 20.735 44.5282 22.2474 44.5282 25.2502C44.5282 35.826 38.1157 36.6698 32.0298 37.3603C33.0315 38.226 33.8806 39.8699 33.8806 42.4454C33.8806 46.1387 33.848 50.7087 33.848 51.6074C33.848 52.3197 34.3488 53.1855 35.7315 52.9334C46.6185 49.2949 54 38.8946 54 26.7407C54 11.5401 41.752 0 26.6516 0ZM10.5823 37.7986C10.4407 37.9082 10.4734 38.1603 10.6585 38.3685C10.8327 38.5439 11.0831 38.6206 11.2246 38.4781C11.3661 38.3685 11.3335 38.1165 11.1484 37.9082C10.9742 37.7329 10.7238 37.6562 10.5823 37.7986ZM9.40645 36.9109C9.33024 37.0534 9.43911 37.2287 9.65685 37.3383C9.83105 37.4479 10.0488 37.4151 10.125 37.2616C10.2012 37.1192 10.0923 36.9438 9.8746 36.8342C9.65685 36.7685 9.48266 36.8013 9.40645 36.9109ZM12.9339 40.8124C12.7597 40.9549 12.825 41.2837 13.0754 41.4919C13.3258 41.744 13.6415 41.7769 13.7831 41.6015C13.9246 41.459 13.8593 41.1303 13.6415 40.922C13.402 40.67 13.0754 40.6371 12.9339 40.8124ZM11.6927 39.2014C11.5185 39.311 11.5185 39.596 11.6927 39.848C11.8669 40.1001 12.1609 40.2097 12.3024 40.1001C12.4766 39.9576 12.4766 39.6727 12.3024 39.4206C12.15 39.1685 11.8669 39.059 11.6927 39.2014Z" fill="#6D7483"/>
</svg>
