<svg width="53" height="53" viewBox="0 0 53 53" fill="none" xmlns="http://www.w3.org/2000/svg">
    <path d="M49.2143 0H3.77388C1.69174 0 0 1.7154 0 3.82121V49.1788C0 51.2846 1.69174 53 3.77388 53H49.2143C51.2964 53 53 51.2846 53 49.1788V3.82121C53 1.7154 51.2964 0 49.2143 0ZM16.0183 45.4286H8.16295V20.1353H16.0301V45.4286H16.0183ZM12.0906 16.6808C9.57076 16.6808 7.53594 14.6342 7.53594 12.1261C7.53594 9.61808 9.57076 7.57143 12.0906 7.57143C14.5987 7.57143 16.6453 9.61808 16.6453 12.1261C16.6453 14.646 14.6105 16.6808 12.0906 16.6808ZM45.4641 45.4286H37.6087V33.125C37.6087 30.1911 37.5496 26.4172 33.5272 26.4172C29.4339 26.4172 28.8069 29.6114 28.8069 32.9121V45.4286H20.9516V20.1353H28.4875V23.5897H28.594C29.6469 21.6022 32.2141 19.5083 36.0353 19.5083C43.9853 19.5083 45.4641 24.7491 45.4641 31.5634V45.4286Z" fill="#6D7483"/>
</svg>
