<svg width="65" height="53" viewBox="0 0 65 53" fill="none" xmlns="http://www.w3.org/2000/svg">
    <path d="M58.3187 13.2085C58.3599 13.7882 58.36 14.368 58.36 14.9477C58.36 32.628 44.9558 53 20.4569 53C12.9093 53 5.89788 50.8054 0 46.9962C1.07238 47.1203 2.10337 47.1617 3.21701 47.1617C9.44472 47.1617 15.1777 45.0501 19.7558 41.4477C13.8991 41.3234 8.99111 37.4727 7.30009 32.1726C8.12503 32.2968 8.94985 32.3796 9.81605 32.3796C11.0121 32.3796 12.2082 32.2139 13.3218 31.9242C7.21769 30.6819 2.63949 25.2992 2.63949 18.7984V18.6329C4.41291 19.6266 6.47527 20.2477 8.66103 20.3304C5.07281 17.9288 2.72201 13.8296 2.72201 9.19209C2.72201 6.70777 3.38179 4.43042 4.53669 2.44291C11.0945 10.5585 20.9518 15.8584 32.005 16.4382C31.7988 15.4445 31.6751 14.4094 31.6751 13.3742C31.6751 6.00384 37.6142 0 44.9968 0C48.8325 0 52.2969 1.61484 54.7303 4.22344C57.7411 3.64378 60.6281 2.52575 63.1853 0.993757C62.1953 4.0993 60.092 6.70789 57.3287 8.36403C60.0096 8.07432 62.6079 7.32885 65 6.2938C63.1856 8.94369 60.917 11.3037 58.3187 13.2085Z" fill="#6D7483"/>
</svg>
